<svg width="1017" height="290" viewBox="0 0 1017 290" fill="none" xmlns="http://www.w3.org/2000/svg">
<mask id="mask0_117_31238" style="mask-type:luminance" maskUnits="userSpaceOnUse" x="147" y="0" width="85" height="99">
<path d="M147.016 0H231.818V98.6667H147.016V0Z" fill="white"/>
</mask>
<g mask="url(#mask0_117_31238)">
<path d="M172.37 98.1927C183.38 82.4531 186.771 67.6042 188.557 50.2708C172.443 53.7604 158.708 58 149.396 71.375C148.713 71.1354 148.021 70.8906 147.333 70.651C147.333 66.6354 146.536 62.4271 147.463 58.6406C153.719 33.0104 172.76 19.224 194.797 8.78646C205.76 3.58854 217.318 -0.302081 231.729 0.0885434C230.292 8.90104 229.364 17.151 227.536 25.1927C223.088 44.7448 219.344 64.5625 208.677 82.0573C203.396 90.7188 195.693 95.9427 186.057 98.0677C182.396 98.8698 178.406 98.1927 172.37 98.1927Z" fill="#99BF0F"/>
</g>
<path d="M160.804 126.738C160.804 133.894 158.872 140.363 155.013 146.154C151.164 151.936 145.554 156.186 138.179 158.904L164.221 207.904H122.013L101.263 165.196H87.3044V207.904H49.7002V90.8418H121.346C129.731 90.8418 136.909 92.4616 142.867 95.696C148.825 98.9355 153.304 103.3 156.304 108.8C159.304 114.3 160.804 120.279 160.804 126.738ZM122.534 128.279C122.534 125.212 121.513 122.654 119.471 120.613C117.429 118.571 114.929 117.55 111.971 117.55H87.3044V139.175H111.971C114.929 139.175 117.429 138.128 119.471 136.029C121.513 133.92 122.534 131.337 122.534 128.279Z" fill="white"/>
<path d="M241.956 207.904L239.748 194.3C236.232 199.175 231.607 203.003 225.873 205.779C220.149 208.555 214.107 209.946 207.748 209.946C197.315 209.946 189.487 207.061 184.269 201.279C179.06 195.488 176.456 187.149 176.456 176.259V118.071H210.31V172.175C210.31 176.04 211.3 179.128 213.289 181.446C215.274 183.769 218.081 184.925 221.706 184.925C225.899 184.925 229.3 183.566 231.914 180.842C234.524 178.123 235.831 174.779 235.831 170.821V118.071H269.685V207.904H241.956Z" fill="white"/>
<path d="M344.887 115.863C347.481 115.863 349.804 116.175 351.846 116.8C353.887 117.415 354.908 117.779 354.908 117.904V146.321H344.033C336.991 146.321 331.908 148.134 328.783 151.759C325.668 155.384 324.116 160.774 324.116 167.925V207.904H290.262V118.071H317.991L320.2 131.675C322.241 126.457 325.471 122.519 329.887 119.863C334.314 117.196 339.314 115.863 344.887 115.863Z" fill="white"/>
<path d="M413.107 116.029C426.826 116.029 437.992 118.331 446.607 122.925C455.232 127.508 459.544 134.967 459.544 145.3V180.342C459.544 182.274 459.992 183.863 460.898 185.113C461.815 186.352 463.18 186.967 465.003 186.967H471.128V206.55C470.779 206.774 469.898 207.144 468.482 207.654C467.065 208.165 465.049 208.675 462.44 209.175C459.826 209.686 456.82 209.946 453.419 209.946C446.846 209.946 441.43 208.951 437.169 206.967C432.919 204.982 430.003 202.232 428.419 198.717C424.096 202.123 419.273 204.842 413.94 206.883C408.617 208.925 402.383 209.946 395.232 209.946C374.133 209.946 363.586 201.55 363.586 184.758C363.586 176.024 365.94 169.363 370.648 164.779C375.357 160.186 382.133 157.04 390.982 155.342C399.826 153.633 411.398 152.779 425.69 152.779V148.363C425.69 144.837 424.466 142.17 422.023 140.363C419.591 138.545 416.445 137.633 412.586 137.633C409.07 137.633 406.034 138.258 403.482 139.508C400.924 140.758 399.648 142.748 399.648 145.467V146.133H366.315C366.201 145.581 366.148 144.79 366.148 143.758C366.148 135.258 370.195 128.519 378.294 123.529C386.404 118.529 398.008 116.029 413.107 116.029ZM425.69 168.779C416.049 168.779 408.93 169.831 404.336 171.925C399.737 174.024 397.44 176.831 397.44 180.342C397.44 186.008 401.299 188.842 409.023 188.842C413.44 188.842 417.32 187.654 420.669 185.279C424.013 182.894 425.69 179.941 425.69 176.425V168.779Z" fill="white"/>
<path d="M483.351 207.904V84.5503H517.205V207.904H483.351Z" fill="white"/>
<path d="M608.57 120.779V207.904H570.987V120.779H532.528V90.8418H646.862V120.779H608.57Z" fill="#99BF0F"/>
<path d="M697.9 116.029C714.343 116.029 726.9 119.894 735.567 127.613C744.244 135.321 748.588 147.113 748.588 162.988V168.779H681.213C681.213 175.238 682.655 180.113 685.546 183.404C688.447 186.696 693.015 188.342 699.254 188.342C704.921 188.342 709.088 187.154 711.754 184.779C714.421 182.394 715.754 179.212 715.754 175.238H748.588C748.588 186.128 744.447 194.633 736.171 200.758C727.89 206.883 715.817 209.946 699.942 209.946C683.259 209.946 670.322 206.066 661.129 198.3C651.947 190.524 647.358 178.753 647.358 162.988C647.358 147.561 651.838 135.878 660.796 127.946C669.754 120.003 682.119 116.029 697.9 116.029ZM699.254 137.633C688.588 137.633 682.629 142.686 681.379 152.779H714.4C714.4 148.128 713.067 144.441 710.4 141.717C707.733 138.998 704.015 137.633 699.254 137.633Z" fill="#99BF0F"/>
<path d="M811.373 116.029C826.107 116.029 838.039 119.175 847.164 125.467C856.3 131.758 860.873 141.373 860.873 154.3H828.039C828.039 144.092 822.482 138.988 811.373 138.988C800.248 138.988 794.685 145.399 794.685 158.217V167.925C794.685 180.623 800.466 186.967 812.039 186.967C823.607 186.967 829.394 181.753 829.394 171.321H860.873C860.873 184.363 856.3 194.066 847.164 200.425C838.039 206.774 826.107 209.946 811.373 209.946C795.591 209.946 783.227 205.982 774.269 198.05C765.31 190.107 760.831 178.42 760.831 162.988C760.831 147.561 765.31 135.878 774.269 127.946C783.227 120.003 795.591 116.029 811.373 116.029Z" fill="#99BF0F"/>
<path d="M909.349 127.425C912.985 123.8 917.245 120.998 922.12 119.009C926.995 117.024 932.099 116.029 937.433 116.029C947.86 116.029 955.688 118.925 960.912 124.717C966.131 130.498 968.745 138.832 968.745 149.717V207.904H934.87V153.8C934.87 149.941 933.875 146.852 931.891 144.529C929.901 142.196 927.099 141.029 923.474 141.029C919.276 141.029 915.875 142.394 913.266 145.113C910.651 147.837 909.349 151.186 909.349 155.154V207.904H875.495V84.5503H909.349V127.425Z" fill="#99BF0F"/>
</svg>
